<svg xmlns="http://www.w3.org/2000/svg" viewBox="0 0 24 24">
  <path d="M12 4.26h7.6a.6.6 0 0 1 .56.3 1822 1822 0 0 0 3.7 5.93c.2.34.2.43-.09.74l-11.3 12.14c-.29.31-.47.32-.77 0L.18 11.17a.42.42 0 0 1-.07-.62L3.88 4.5c.1-.18.3-.28.5-.26H12Zm10.7 6.96h-6.25l-.06-.01c-.16 0-.3.12-.33.28l-2.7 8.67-.48 1.57.04.01 9.79-10.52ZM11 21.49l.04-.03-.04-.13-3.1-9.9a.24.24 0 0 0-.27-.22H1.3L11 21.5Zm1-16.1-3.15 5.04h6.3L12 5.38Zm7.74 0-3.16 5.04h6.31L19.74 5.4Zm-15.48 0-3.15 5.03h6.3L4.27 5.4Zm4.4 5.83 3.31 10.58h.06l3.3-10.58H8.66Zm-.53-1.13 3.16-5.05H4.98l3.15 5.05Zm10.9-5.05H12.7l3.16 5.05 3.15-5.05ZM18 1.14c0 .05-.02.09-.03.12l-1.2 2.1a.36.36 0 0 1-.52.1.39.39 0 0 1-.15-.5l.03-.07L17.25.95a.4.4 0 0 1 .74.17v.02ZM7.98 3.18c-.1.1-.17.25-.3.3a.67.67 0 0 1-.39-.07c-.05-.02-.09-.11-.13-.17-.35-.62-.7-1.24-1.07-1.86-.15-.27-.1-.48.12-.6.2-.12.41-.05.56.2l1.08 1.88c.05.1.1.2.13.32Zm4.4-1.22v1.08c0 .27-.14.43-.37.44-.24 0-.4-.16-.4-.44V.82c0-.27.14-.43.38-.43.24-.01.4.15.4.43v1.14ZM3.46 20.94c-.1-.1-.27-.18-.3-.3a.5.5 0 0 1 .09-.42c.35-.4.74-.76 1.11-1.13l.4-.4a.39.39 0 0 1 .56 0 .38.38 0 0 1 0 .55l-1.54 1.53c-.1.07-.2.13-.32.17Zm15.48-2.43.34.2 1.49 1.49c.09.07.14.18.14.3a.4.4 0 0 1-.69.26l-1.5-1.5a.35.35 0 0 1-.1-.44c.1-.11.2-.22.32-.3Zm-15.01-1.2c-.06.06-.15.22-.27.26a45.36 45.36 0 0 1-2.1.62.4.4 0 0 1-.09-.77l1.92-.57c.3-.09.54.1.54.46Zm16.64-.48.48.14 1.45.43c.27.09.4.27.33.5-.06.22-.28.33-.56.25l-1.87-.55a.4.4 0 0 1-.3-.45.41.41 0 0 1 .47-.32Zm-14.27 6c-.35 0-.54-.23-.47-.5l.59-1.98a.39.39 0 0 1 .75.2l-.61 2.03c-.04.12-.2.2-.26.24Zm11.43 0a.36.36 0 0 1-.3-.3 133.92 133.92 0 0 1-.6-2.06.4.4 0 0 1 .31-.38.4.4 0 0 1 .47.28l.57 1.94c.08.28-.1.52-.45.51Z"/>
</svg>
