<svg xmlns="http://www.w3.org/2000/svg" viewBox="0 0 24 24">
  <path d="M11.94 1.68c-2.18.02-4.26.9-5.78 2.46a8.36 8.36 0 0 0 .09 11.68l5.83 5.8 5.76-5.88a8.36 8.36 0 0 0-.09-11.68 8.13 8.13 0 0 0-5.8-2.38M12.1 24l-7.02-6.98a10.06 10.06 0 0 1-.1-14.06 9.82 9.82 0 0 1 13.94-.1 10.06 10.06 0 0 1 .1 14.06L12.1 24m1.74-10.38a2.5 2.5 0 0 0 .73-1.83v-.01a2.54 2.54 0 0 0-2.53-2.53H12a2.48 2.48 0 0 0-2.53 2.57 2.5 2.5 0 0 0 .73 1.83 2.5 2.5 0 0 0 1.83.71c.68.02 1.34-.25 1.81-.74m-6.32-1.78A4.1 4.1 0 0 1 8.8 8.75a4.5 4.5 0 0 1 3.18-1.26c1.19-.04 2.34.4 3.2 1.22a4.1 4.1 0 0 1 1.33 3.07 4.1 4.1 0 0 1-1.29 3.08 4.42 4.42 0 0 1-3.18 1.27 4.45 4.45 0 0 1-3.2-1.23 4.1 4.1 0 0 1-1.32-3.06ZM9.2 6.35l-.01-1.72 5.55-.04.01 1.73-5.55.03Z"/>
</svg>
