<svg xmlns="http://www.w3.org/2000/svg" viewBox="0 0 24 24">
  <path d="M24 8.49c-.07.38-.12.77-.23 1.14a6.88 6.88 0 0 1-5.58 5.2 7.13 7.13 0 0 1-8.4-6.97c0-3.1 2.05-5.87 5.02-6.78a6.86 6.86 0 0 1 7.34 2.01 6.78 6.78 0 0 1 1.8 3.95l.05.18V8.5Zm-7-.02a2.38 2.38 0 0 0 2.26-2.37 2.38 2.38 0 0 0-2.65-2.35 2.43 2.43 0 0 0-2.08 2.55A2.41 2.41 0 0 0 17 8.46Zm3.61 4.27a6.15 6.15 0 0 0-3.7-11.04h-.04a6.14 6.14 0 0 0-3.7 11.04l.01-.27v-2.4c0-.18.03-.36.07-.55.16-.6.7-1.03 1.31-1.05a3.34 3.34 0 0 1 .18-4.88 3.3 3.3 0 0 1 5.44 2.04 3.3 3.3 0 0 1-.95 2.84l.3.05c.67.18 1.13.8 1.08 1.5v2.72ZM16.9 9.43h-2.18c-.4 0-.57.16-.58.56v3.19c-.01.12.06.24.18.28 1.64.74 3.51.74 5.15 0 .12-.04.2-.16.18-.28v-3.16c0-.43-.17-.6-.6-.6H16.9ZM6.8 20.8H4.95c-.07.41-.34.5-.7.5-1.22-.02-2.44-.01-3.66-.02-.43 0-.59-.16-.59-.59v-5.3c0-.43.17-.6.6-.6h3.71c.38 0 .5.1.65.47h1.37c.15 0 .3.05.46.07a.6.6 0 0 0 .23-.05c.6-.33 1.24-.58 1.9-.75.7-.16 1.42-.1 2.07.18.72.3 1.42.68 2.12 1.03.46.23.9.49 1.37.71.16.07.34.1.51.1.69.03 1.38 0 2.06.05.72.05 1.15.5 1.38 1.16l.06.2c.7-.51 1.38-1.02 2.07-1.5a2 2 0 0 1 2.13-.2 1.8 1.8 0 0 1 .3 3.13 438.21 438.21 0 0 1-4.1 3.07c-.57.37-1.23.6-1.9.65-1.6.23-3.19.15-4.78.08a8.5 8.5 0 0 1-3.16-.85l-.97-.46A3.43 3.43 0 0 1 6.8 20.8Zm7.5 1.52c.8-.05 1.65-.07 2.5-.15.7-.03 1.36-.3 1.9-.74.25-.23.54-.4.8-.61l2.95-2.2a.85.85 0 0 0-.17-1.51c-.4-.19-.86-.14-1.2.13l-3.17 2.25a.95.95 0 0 1-.34.15l-1.83.36c-.73.15-1.47.17-2.21.07-1.28-.2-2.44-.78-3.63-1.26a.57.57 0 0 1-.28-.37c-.08-.38.28-.63.67-.48l1.93.77c.62.26 1.29.42 1.97.45 1.08.03 2.11-.28 3.16-.47.05-.02.1-.09.13-.14a.72.72 0 0 0-.63-1.04h-.84c-.3 0-.6-.02-.89 0a2.1 2.1 0 0 1-1.2-.3c-1.05-.53-2.08-1.08-3.13-1.58a2.39 2.39 0 0 0-1.87-.13c-.61.23-1.2.52-1.8.79-.05.03-.08.15-.09.23a241.6 241.6 0 0 0 .03 2.76c.17.55.5 1.03.94 1.4.44.28.9.53 1.37.74.76.39 1.58.64 2.42.74.82.08 1.64.1 2.51.14Zm-5.9-5.08h.02c.24 0 .45.2.45.44v.03c0 .25-.2.45-.46.46a.49.49 0 0 1-.49-.46c0-.26.22-.47.47-.47Zm-7.45 3.1h3.02v-4.58H.95v4.57Zm5.12-4.1H4.95v3.62h1.12v-3.63Z"/>
</svg>
