<svg xmlns="http://www.w3.org/2000/svg" viewBox="0 0 24 24">
  <path d="m23 16.54-2.14-2.15a3.45 3.45 0 0 0-4.81-.02 2.1 2.1 0 0 1-2.66.26 14.65 14.65 0 0 1-4.03-4.03 2.13 2.13 0 0 1 .27-2.67 3.45 3.45 0 0 0-.03-4.8L7.46 1a3.44 3.44 0 0 0-4.84 0L2 1.62c-3.2 3.21-2.97 9.97 3.72 16.66C9.75 22.3 13.82 24 17.11 24a7.31 7.31 0 0 0 5.28-2l.61-.63a3.44 3.44 0 0 0 0-4.83ZM21.62 20l-.61.61c-2.54 2.54-8.13 2.07-13.91-3.71C1.3 11.1.85 5.52 3.38 2.98L4 2.37a1.48 1.48 0 0 1 2.08 0L8.22 4.5c.56.56.57 1.48.02 2.06a4.09 4.09 0 0 0-.52 5.1 16.58 16.58 0 0 0 4.59 4.59 4.08 4.08 0 0 0 5.1-.5c.57-.56 1.5-.56 2.06 0l2.15 2.15a1.47 1.47 0 0 1 0 2.09Z"/>
</svg>
