<svg xmlns="http://www.w3.org/2000/svg" viewBox="0 0 24 24">
  <path d="M12 0h.04c5.6.02 10.2 4.63 10.2 10.24v.15c-.08 4-2.47 7.36-4.47 9.46a25.43 25.43 0 0 1-4.47 3.7c-.76.6-1.84.6-2.6 0a24.85 24.85 0 0 1-6.3-5.92 12.76 12.76 0 0 1-2.64-7.36v-.07C1.78 4.6 6.4 0 12 0Zm8.35 10.36v-.12a8.4 8.4 0 0 0-8.32-8.36H12a8.4 8.4 0 0 0-8.35 8.33A10.9 10.9 0 0 0 5.9 16.5a22.98 22.98 0 0 0 5.98 5.58c.07.06.17.06.24 0l.1-.08a23.52 23.52 0 0 0 4.19-3.43c1.76-1.87 3.88-4.8 3.94-8.2ZM12 6.66a3.7 3.7 0 0 1 3.68 3.68A3.7 3.7 0 0 1 12 14.02a3.7 3.7 0 0 1-3.68-3.68A3.7 3.7 0 0 1 12 6.66Zm0 5.47c.99 0 1.8-.81 1.8-1.8 0-.98-.81-1.8-1.8-1.8-.98 0-1.8.82-1.8 1.8 0 .99.82 1.8 1.8 1.8Z"/>
</svg>
