<svg xmlns="http://www.w3.org/2000/svg" viewBox="0 0 24 24"><path d="M16.58 14.04c-.25-.12-1.47-.72-1.7-.8-.23-.09-.4-.13-.56.12-.16.25-.64.8-.79.97-.14.17-.29.19-.53.07-.25-.13-1.06-.4-2-1.24a7.49 7.49 0 0 1-1.39-1.72c-.14-.25-.02-.39.1-.51.12-.11.26-.3.38-.44.13-.14.17-.25.25-.41.08-.17.04-.31-.02-.44L9.55 7.8c-.2-.48-.4-.42-.56-.42l-.47-.01a.91.91 0 0 0-.67.31c-.22.25-.87.85-.87 2.08 0 1.22.9 2.4 1.02 2.57.12.17 1.75 2.68 4.25 3.76.6.25 1.06.4 1.42.52.6.2 1.13.16 1.56.1.48-.07 1.48-.6 1.68-1.18.21-.58.21-1.08.15-1.19-.06-.1-.23-.16-.48-.29m-4.54 6.2c-1.49 0-2.94-.4-4.21-1.15l-.3-.18-3.14.82.84-3.05-.2-.32a8.29 8.29 0 1 1 15.29-4.4 8.29 8.29 0 0 1-8.28 8.28M19.1 4.92A9.97 9.97 0 0 0 3.42 16.94L2 22.1l5.28-1.39a9.97 9.97 0 0 0 11.8-15.8"/></svg>